<svg width="28" height="28" viewBox="0 0 28 28" fill="none" xmlns="http://www.w3.org/2000/svg">
<g clip-path="url(#clip0_492_207)">
<rect x="4.26608" y="27.9015" width="24" height="24" rx="12" transform="rotate(-100 4.26608 27.9015)" fill="white"/>
<path d="M0.0985265 4.26607L4.26608 27.9015L27.9015 23.7339L23.7339 0.0985169L0.0985265 4.26607Z" fill="white"/>
<path d="M23.8486 12.2667C24.0884 13.6264 24.0566 14.9498 23.7534 16.237C23.4501 17.5242 22.9316 18.6919 22.1977 19.74C21.4637 20.7882 20.5442 21.6748 19.4392 22.3998C18.3342 23.1249 17.1018 23.6073 15.7422 23.847C14.372 24.0886 13.0433 24.0578 11.7561 23.7546C10.4689 23.4514 9.30377 22.9328 8.26073 22.1989C7.21771 21.4651 6.3323 20.5456 5.60449 19.4406C4.87668 18.3356 4.39287 17.103 4.15304 15.7429C3.91136 14.3722 3.94318 13.0428 4.2485 11.7545C4.5538 10.4661 5.07103 9.30109 5.80017 8.25935C6.52929 7.21761 7.4467 6.33296 8.55238 5.60531C9.65808 4.87765 10.8966 4.39292 12.2679 4.15112C13.6285 3.91122 14.9525 3.9442 16.2401 4.25016C17.5277 4.55603 18.6947 5.07364 19.7413 5.80268C20.7878 6.53183 21.6736 7.44884 22.3987 8.55392C23.1237 9.65901 23.607 10.8966 23.8486 12.2667ZM21.7622 12.6359C21.3808 10.4726 20.3047 8.77175 18.5339 7.53322C16.763 6.29461 14.7976 5.86579 12.6374 6.24669C10.4742 6.62812 8.7732 7.70344 7.53437 9.47274C6.29552 11.2419 5.86707 13.2096 6.24905 15.3759C6.62915 17.5316 7.70402 19.23 9.47368 20.4711C11.2433 21.7122 13.2113 22.1418 15.3774 21.7599C17.5332 21.3797 19.2314 20.3041 20.4723 18.5329C21.7131 16.7617 22.1431 14.796 21.7622 12.6359Z" fill="white"/>
</g>
<defs>
<clipPath id="clip0_492_207">
<rect x="4.26608" y="27.9015" width="24" height="24" rx="12" transform="rotate(-100 4.26608 27.9015)" fill="white"/>
</clipPath>
</defs>
</svg>
