<svg width="24" height="24" viewBox="0 0 24 24" fill="none" xmlns="http://www.w3.org/2000/svg">
<path d="M4.99258 22C4.44462 22 3.97554 21.7925 3.58532 21.3776C3.19511 20.9627 3 20.4639 3 19.8812V6.05088C3 5.46571 3.19511 4.96478 3.58532 4.54808C3.97554 4.13136 4.44462 3.92301 4.99258 3.92301H8.9944C9.16388 3.35075 9.47648 2.88719 9.93219 2.53231C10.3879 2.17744 10.9091 2 11.4957 2C12.0824 2 12.6036 2.17744 13.0593 2.53231C13.515 2.88719 13.8276 3.35075 13.9971 3.92301H17.9989C18.5492 3.92301 19.0203 4.13136 19.4122 4.54808C19.8041 4.96478 20 5.46571 20 6.05088V19.8812C20 20.4639 19.8041 20.9627 19.4122 21.3776C19.0203 21.7925 18.5492 22 17.9989 22H4.99258ZM4.99258 19.8812H17.9989V6.05088H4.99258V19.8812ZM7.85594 17.6377H12.4154C12.6289 17.6377 12.8078 17.5606 12.9522 17.4065C13.0967 17.2524 13.1689 17.0614 13.1689 16.8336C13.1689 16.6058 13.0967 16.4158 12.9522 16.2635C12.8078 16.1113 12.6289 16.0352 12.4154 16.0352H7.85594C7.64244 16.0352 7.46348 16.1122 7.31907 16.2663C7.17463 16.4205 7.10242 16.6114 7.10242 16.8392C7.10242 17.0671 7.17463 17.2571 7.31907 17.4093C7.46348 17.5616 7.64244 17.6377 7.85594 17.6377ZM7.85594 13.7673H15.1355C15.349 13.7673 15.528 13.6902 15.6724 13.5361C15.8168 13.382 15.8891 13.191 15.8891 12.9632C15.8891 12.7354 15.8168 12.5454 15.6724 12.3931C15.528 12.2409 15.349 12.1648 15.1355 12.1648H7.85594C7.64244 12.1648 7.46348 12.2418 7.31907 12.396C7.17463 12.5501 7.10242 12.741 7.10242 12.9688C7.10242 13.1967 7.17463 13.3867 7.31907 13.5389C7.46348 13.6912 7.64244 13.7673 7.85594 13.7673ZM7.85594 9.89689H15.1355C15.349 9.89689 15.528 9.81984 15.6724 9.66572C15.8168 9.51161 15.8891 9.32065 15.8891 9.09284C15.8891 8.86501 15.8168 8.67497 15.6724 8.52274C15.528 8.3705 15.349 8.29438 15.1355 8.29438H7.85594C7.64244 8.29438 7.46348 8.37144 7.31907 8.52555C7.17463 8.67966 7.10242 8.87062 7.10242 9.09844C7.10242 9.32626 7.17463 9.5163 7.31907 9.66854C7.46348 9.82077 7.64244 9.89689 7.85594 9.89689ZM11.4957 5.4928C11.7312 5.4928 11.9299 5.40676 12.0917 5.23469C12.2535 5.06261 12.3344 4.85137 12.3344 4.60096C12.3344 4.35055 12.2535 4.13931 12.0917 3.96723C11.9299 3.79516 11.7312 3.70912 11.4957 3.70912C11.2603 3.70912 11.0616 3.79516 10.8998 3.96723C10.7379 4.13931 10.657 4.35055 10.657 4.60096C10.657 4.85137 10.7379 5.06261 10.8998 5.23469C11.0616 5.40676 11.2603 5.4928 11.4957 5.4928Z" fill="#211D26"/>
</svg>
