<svg width="48" height="48" viewBox="0 0 48 48" fill="none" xmlns="http://www.w3.org/2000/svg">
<g clip-path="url(#clip0_435_206)">
<path d="M2.66667 48H45.3333C46.8 48 48 46.2 48 44C48 41.8 46.8 40 45.3333 40H2.66667C1.2 40 0 41.8 0 44C0 46.2 1.2 48 2.66667 48ZM2.66667 28H45.3333C46.8 28 48 26.2 48 24C48 21.8 46.8 20 45.3333 20H2.66667C1.2 20 0 21.8 0 24C0 26.2 1.2 28 2.66667 28ZM0 4C0 6.2 1.2 8 2.66667 8H45.3333C46.8 8 48 6.2 48 4C48 1.8 46.8 0 45.3333 0H2.66667C1.2 0 0 1.8 0 4Z" fill="#211D26"/>
</g>
<defs>
<clipPath id="clip0_435_206">
<rect width="48" height="48" fill="white"/>
</clipPath>
</defs>
</svg>
