<svg width="48" height="48" viewBox="0 0 48 48" fill="none" xmlns="http://www.w3.org/2000/svg">
<path d="M39.7718 42.7413L26.4522 29.45C25.471 30.2587 24.3192 30.8909 22.9966 31.3467C21.6741 31.8025 20.252 32.0304 18.7305 32.0304C14.9932 32.0304 11.8288 30.7333 9.23728 28.1391C6.64574 25.5449 5.34998 22.4152 5.34998 18.75C5.34998 15.0848 6.64709 11.955 9.24133 9.36084C11.8355 6.76664 14.9736 5.46954 18.6555 5.46954C22.3373 5.46954 25.467 6.76664 28.0446 9.36084C30.6221 11.955 31.9109 15.0873 31.9109 18.7575C31.9109 20.2235 31.6917 21.609 31.2533 22.9141C30.8149 24.2192 30.1573 25.4457 29.2805 26.5935L42.6501 39.863L39.7718 42.7413ZM18.6904 28.0695C21.2791 28.0695 23.4695 27.1607 25.2617 25.3429C27.0539 23.5252 27.95 21.3275 27.95 18.75C27.95 16.1725 27.0525 13.9748 25.2575 12.1571C23.4626 10.3393 21.2735 9.43044 18.6904 9.43044C16.0796 9.43044 13.8636 10.3393 12.0425 12.1571C10.2215 13.9748 9.31093 16.1725 9.31093 18.75C9.31093 21.3275 10.2201 23.5252 12.0384 25.3429C13.8567 27.1607 16.074 28.0695 18.6904 28.0695Z" fill="white"/>
</svg>
